<svg width="18" height="18" viewBox="0 0 18 18" fill="none" xmlns="http://www.w3.org/2000/svg">
<path d="M12.461 0.999998L5.53901 1C3.95021 1 3.15581 1 2.54896 1.28447C2.01517 1.53469 1.58118 1.93396 1.3092 2.42505C1 2.98334 1 3.71419 1 5.17589L1 12.4837C1 13.9454 1 14.6762 1.3092 15.2345C1.58119 15.7256 2.01517 16.1249 2.54897 16.3751C3.15581 16.6596 3.95021 16.6596 5.53901 16.6596L12.461 16.6596C14.0498 16.6596 14.8442 16.6596 15.451 16.3751C15.9848 16.1249 16.4188 15.7256 16.6908 15.2345C17 14.6762 17 13.9454 17 12.4837L17 5.17588C17 3.71419 17 2.98334 16.6908 2.42504C16.4188 1.93395 15.9848 1.53469 15.451 1.28446C14.8442 0.999997 14.0498 0.999997 12.461 0.999998Z" stroke="#040404" stroke-width="1.3" stroke-linecap="round" stroke-linejoin="round"/>
<path d="M5.4248 1.3418L5.42481 16.6609" stroke="#040404" stroke-width="1.3"/>
</svg>
