<svg width="18" height="18" viewBox="0 0 18 18" fill="none" xmlns="http://www.w3.org/2000/svg">
<path d="M5.53901 16.6602L12.461 16.6602C14.0498 16.6602 14.8442 16.6602 15.451 16.3757C15.9848 16.1255 16.4188 15.7262 16.6908 15.2351C17 14.6768 17 13.946 17 12.4843L17 5.17647C17 3.71477 17 2.98392 16.6908 2.42563C16.4188 1.93454 15.9848 1.53527 15.451 1.28505C14.8442 1.00058 14.0498 1.00058 12.461 1.00058L5.539 1.00058C3.9502 1.00058 3.1558 1.00058 2.54896 1.28505C2.01516 1.53527 1.58118 1.93454 1.3092 2.42563C0.999994 2.98392 0.999994 3.71477 0.999995 5.17647L0.999997 12.4843C0.999997 13.946 0.999997 14.6768 1.3092 15.2351C1.58118 15.7262 2.01517 16.1255 2.54896 16.3757C3.1558 16.6602 3.9502 16.6602 5.53901 16.6602Z" stroke="black" strokeWidth="1.3" stroke-linecap="round" stroke-linejoin="round"/>
<path d="M12.5752 16.3184L12.5752 0.999211" stroke="black" stroke-width="1.3"/>
</svg>
