<svg width="20" height="20" viewBox="0 0 20 20" fill="none" xmlns="http://www.w3.org/2000/svg">
<path d="M6.75 4.5H11.5M2 6.875H16.25M14.6667 6.875L14.1115 15.2028C14.0282 16.4522 13.9865 17.0769 13.7167 17.5506C13.4791 17.9677 13.1207 18.3029 12.6888 18.5123C12.1982 18.75 11.5721 18.75 10.3199 18.75H7.9301C6.67788 18.75 6.05177 18.75 5.56118 18.5123C5.12927 18.3029 4.7709 17.9677 4.53332 17.5506C4.26346 17.0769 4.22181 16.4522 4.13852 15.2028L3.58333 6.875M7.54167 10.4375V14.3958M10.7083 10.4375V14.3958" stroke="#277ED6" stroke-width="1.30006" stroke-linecap="round" stroke-linejoin="round"/>
<path d="M15.5147 0.999991L15.5147 1.78173" stroke="#277ED6" stroke-width="1.30006" stroke-linecap="round" stroke-linejoin="round"/>
<path d="M18.0385 3.0802L16.8711 3.0735" stroke="#277ED6" stroke-width="1.30006" stroke-linecap="round" stroke-linejoin="round"/>
<path d="M15.523 4.37196L15.5228 5.00009" stroke="#277ED6" stroke-width="1.30006" stroke-linecap="round" stroke-linejoin="round"/>
<path d="M14.1674 3.0802L13 3.07365" stroke="#277ED6" stroke-width="1.30006" stroke-linecap="round" stroke-linejoin="round"/>
</svg>
