<svg width="20" height="20" viewBox="0 0 20 20" fill="none" xmlns="http://www.w3.org/2000/svg">
<path d="M10.1481 13.4706V8.52941M7.72981 11H12.5664M10.1481 18C13.9323 18 17 14.866 17 11C17 7.13401 13.9323 4 10.1481 4C6.36393 4 3.29623 7.13401 3.29623 11C3.29623 11.7823 3.42186 12.5347 3.65364 13.2372C3.74086 13.5016 3.78447 13.6337 3.79233 13.7353C3.8001 13.8356 3.79423 13.9059 3.76994 14.0034C3.74535 14.1021 3.69106 14.2048 3.58248 14.4101L2.26397 16.9033C2.07589 17.259 1.98186 17.4368 2.0029 17.574C2.02123 17.6936 2.0901 17.7988 2.19121 17.8618C2.30729 17.9342 2.50407 17.9134 2.89765 17.8718L7.02573 17.4359C7.15074 17.4227 7.21324 17.4161 7.27021 17.4183C7.32625 17.4205 7.36581 17.4259 7.42045 17.4388C7.47601 17.4518 7.54587 17.4793 7.68559 17.5343C8.44982 17.8351 9.28012 18 10.1481 18Z" stroke="white" stroke-width="1.3" stroke-linecap="round" stroke-linejoin="round"/>
<path d="M17.0481 1.51406C17.111 1.35398 17.1424 1.27393 17.1876 1.2505C17.2267 1.23019 17.2733 1.23019 17.3124 1.2505C17.3576 1.27393 17.389 1.35398 17.4519 1.51406L17.7027 2.15242C17.7661 2.31396 17.7979 2.39472 17.8472 2.46266C17.8909 2.52287 17.9447 2.57548 18.0062 2.61829C18.0755 2.6666 18.158 2.69766 18.323 2.75979L18.9609 3C19.1278 3.06287 19.2113 3.0943 19.2353 3.13991C19.256 3.17942 19.256 3.22664 19.2353 3.26616C19.2113 3.31177 19.1278 3.3432 18.9609 3.40606L18.323 3.64627C18.158 3.7084 18.0755 3.73946 18.0062 3.78777C17.9447 3.83059 17.8909 3.88319 17.8472 3.9434C17.7979 4.01134 17.7661 4.09211 17.7027 4.25364L17.4519 4.892C17.389 5.05209 17.3576 5.13213 17.3124 5.15556C17.2733 5.17587 17.2267 5.17587 17.1876 5.15556C17.1424 5.13213 17.111 5.05209 17.0481 4.892L16.7973 4.25364C16.7339 4.09211 16.7021 4.01134 16.6528 3.9434C16.6091 3.88319 16.5553 3.83059 16.4938 3.78777C16.4245 3.73946 16.342 3.7084 16.177 3.64627L15.5391 3.40606C15.3722 3.3432 15.2887 3.31177 15.2647 3.26616C15.244 3.22664 15.244 3.17942 15.2647 3.13991C15.2887 3.0943 15.3722 3.06287 15.5391 3L16.177 2.75979C16.342 2.69766 16.4245 2.6666 16.4938 2.61829C16.5553 2.57548 16.6091 2.52287 16.6528 2.46266C16.7021 2.39472 16.7339 2.31396 16.7973 2.15242L17.0481 1.51406Z" fill="white" stroke="white" stroke-width="0.497893" stroke-linecap="round" stroke-linejoin="round"/>
</svg>
