<svg width="18" height="17" viewBox="0 0 18 17" fill="none" xmlns="http://www.w3.org/2000/svg">
<path d="M10.6354 0.947862C10.7486 0.653532 10.8052 0.506367 10.887 0.463676C10.9578 0.426675 11.0422 0.426675 11.113 0.463676C11.1948 0.506367 11.2514 0.653532 11.3646 0.947862L12.4084 3.66176C12.6058 4.17502 12.7045 4.43165 12.858 4.64752C12.994 4.83883 13.1612 5.00599 13.3525 5.14203C13.5684 5.29552 13.825 5.39422 14.3382 5.59163L17.0521 6.63544C17.3465 6.74864 17.4936 6.80524 17.5363 6.88696C17.5733 6.95778 17.5733 7.04222 17.5363 7.11304C17.4936 7.19476 17.3465 7.25136 17.0521 7.36456L14.3382 8.40837C13.825 8.60578 13.5684 8.70448 13.3525 8.85798C13.1612 8.99401 12.994 9.16117 12.858 9.35249C12.7045 9.56835 12.6058 9.82498 12.4084 10.3382L11.3646 13.0521C11.2514 13.3465 11.1948 13.4936 11.113 13.5363C11.0422 13.5733 10.9578 13.5733 10.887 13.5363C10.8052 13.4936 10.7486 13.3465 10.6354 13.0521L9.59163 10.3382C9.39422 9.82498 9.29552 9.56835 9.14203 9.35249C9.00599 9.16117 8.83883 8.99401 8.64752 8.85798C8.43165 8.70448 8.17502 8.60578 7.66176 8.40837L4.94786 7.36456C4.65353 7.25136 4.50637 7.19476 4.46368 7.11304C4.42668 7.04222 4.42668 6.95778 4.46368 6.88696C4.50637 6.80524 4.65353 6.74864 4.94786 6.63544L7.66176 5.59163C8.17502 5.39422 8.43165 5.29552 8.64752 5.14203C8.83883 5.00599 9.00599 4.83883 9.14203 4.64752C9.29552 4.43165 9.39422 4.17502 9.59163 3.66176L10.6354 0.947862Z" fill="white"/>
<path d="M3.68366 9.80533C3.78217 9.55454 3.83142 9.42915 3.90217 9.39244C3.96351 9.36062 4.03649 9.36062 4.09783 9.39244C4.16857 9.42915 4.21783 9.55454 4.31634 9.80533L4.80478 11.0488C4.91759 11.3359 4.97399 11.4795 5.0617 11.6003C5.13944 11.7073 5.23495 11.8009 5.34428 11.877C5.46763 11.9628 5.61427 12.0181 5.90757 12.1285L7.15539 12.5984C7.41691 12.6969 7.54767 12.7462 7.58525 12.8176C7.61782 12.8795 7.61782 12.9535 7.58525 13.0154C7.54767 13.0868 7.41691 13.1361 7.15539 13.2346L5.90757 13.7045C5.61428 13.8149 5.46763 13.8702 5.34428 13.956C5.23495 14.0322 5.13944 14.1257 5.0617 14.2327C4.97399 14.3535 4.91759 14.4971 4.80478 14.7842L4.31635 16.0277C4.21783 16.2785 4.16858 16.4039 4.09783 16.4406C4.03649 16.4724 3.96351 16.4724 3.90217 16.4406C3.83143 16.4039 3.78217 16.2785 3.68366 16.0277L3.19522 14.7842C3.08241 14.4971 3.02601 14.3535 2.9383 14.2327C2.86057 14.1257 2.76505 14.0322 2.65572 13.956C2.53237 13.8702 2.38573 13.8149 2.09243 13.7045L0.844612 13.2346C0.583091 13.1361 0.452331 13.0868 0.414746 13.0154C0.382181 12.9535 0.382181 12.8795 0.414746 12.8176C0.452331 12.7462 0.583091 12.6969 0.844611 12.5984L2.09243 12.1285C2.38573 12.0181 2.53237 11.9628 2.65572 11.877C2.76505 11.8009 2.86056 11.7073 2.9383 11.6003C3.02601 11.4795 3.08241 11.3359 3.19522 11.0488L3.68366 9.80533Z" fill="white"/>
</svg>
