<svg width="30" height="30" viewBox="0 0 30 30" fill="none" xmlns="http://www.w3.org/2000/svg">
<path d="M15 29C22.732 29 29 22.732 29 15C29 7.26801 22.732 1 15 1C7.26801 1 1 7.26801 1 15C1 22.732 7.26801 29 15 29Z" fill="#1A1F27"/>
<mask id="mask0_1061_15705" style="mask-type:alpha" maskUnits="userSpaceOnUse" x="0" y="0" width="30" height="30">
<path d="M15 29C22.732 29 29 22.732 29 15C29 7.26801 22.732 1 15 1C7.26801 1 1 7.26801 1 15C1 22.732 7.26801 29 15 29Z" fill="#1A1F27" stroke="black" stroke-width="0.459016" stroke-linecap="round" stroke-linejoin="round"/>
</mask>
<g mask="url(#mask0_1061_15705)">
</g>
<mask id="mask1_1061_15705" style="mask-type:alpha" maskUnits="userSpaceOnUse" x="0" y="0" width="30" height="30">
<path d="M15 29C22.732 29 29 22.732 29 15C29 7.26801 22.732 1 15 1C7.26801 1 1 7.26801 1 15C1 22.732 7.26801 29 15 29Z" fill="#1A1F27" stroke="black" stroke-width="0.459016" stroke-linecap="round" stroke-linejoin="round"/>
</mask>
<g mask="url(#mask1_1061_15705)">
<path d="M14.9998 18.2331C17.9737 18.2331 20.3845 15.8223 20.3845 12.8485C20.3845 9.87464 17.9737 7.46387 14.9998 7.46387C12.026 7.46387 9.61523 9.87464 9.61523 12.8485C9.61523 15.8223 12.026 18.2331 14.9998 18.2331Z" fill="white"/>
<path d="M15.0005 32.1249C21.5429 32.1249 26.8466 33.2901 26.8466 27.9565C26.8466 22.6229 21.5429 19.3096 15.0005 19.3096C8.458 19.3096 3.1543 22.6229 3.1543 27.9565C3.1543 33.2901 8.458 32.1249 15.0005 32.1249Z" fill="white"/>
</g>
<path d="M15 29C22.732 29 29 22.732 29 15C29 7.26801 22.732 1 15 1C7.26801 1 1 7.26801 1 15C1 22.732 7.26801 29 15 29Z" stroke="white" stroke-width="1.3" stroke-linecap="round" stroke-linejoin="round"/>
</svg>
