<svg width="36" height="36" viewBox="0 0 36 36" fill="none" xmlns="http://www.w3.org/2000/svg">
<path d="M0 18C0 8.05887 8.05888 0 18 0C27.9411 0 36 8.05887 36 18C36 27.9411 27.9411 36 18 36C8.05888 36 0 27.9411 0 18Z" fill="#067EE1"/>
<mask id="mask0_8218_5239" style="mask-type:luminance" maskUnits="userSpaceOnUse" x="3" y="13" width="28" height="9">
<path d="M30.4616 13.9102H3.69238V21.5522H30.4616V13.9102Z" fill="white"/>
</mask>
<g mask="url(#mask0_8218_5239)">
<path d="M20.8711 19.0769C20.2337 19.6808 19.4802 19.8036 18.5455 19.8036H10.5298C9.89148 19.8036 9.32549 19.308 9.06124 18.6087H6.97852C7.35792 20.295 8.80592 21.5544 10.5298 21.5544H18.5455C19.6856 21.5544 21.1496 21.4066 22.3637 20.258L23.676 19.0159L22.3066 17.7188C21.5237 18.4601 20.872 19.0769 20.872 19.0769H20.8711Z" fill="white"/>
<path d="M10.5297 15.6609H15.7548C15.9851 15.6609 16.2422 15.9057 16.2422 16.2579C16.2422 16.6101 15.9851 16.8558 15.7548 16.8558H9.06026C8.9585 17.1238 8.90136 17.4211 8.90136 17.7312C8.90136 18.0413 8.9585 18.3394 9.06026 18.6066H15.7539C17.1376 18.6066 18.2634 17.5525 18.2634 16.2579C18.2634 14.9633 17.1376 13.9102 15.7539 13.9102H10.5288C8.80405 13.9102 7.35605 15.1695 6.97754 16.8558H9.06026C9.32541 16.1566 9.89139 15.6609 10.5288 15.6609H10.5297Z" fill="white"/>
<path d="M8.90092 17.7309C8.90092 17.4198 8.95806 17.1227 9.05983 16.8555H6.97711C6.91372 17.1373 6.87891 17.4293 6.87891 17.7309C6.87891 18.0324 6.91372 18.3253 6.97711 18.6062H9.05983C8.95895 18.3382 8.90092 18.0418 8.90092 17.7309Z" fill="white"/>
<path d="M6.97761 16.8555H4.70295C4.14499 16.8555 3.69238 17.2472 3.69238 17.7309C3.69238 18.2145 4.14499 18.6062 4.70295 18.6062H6.97761C6.91422 18.3244 6.87941 18.0324 6.87941 17.7309C6.87941 17.4293 6.91422 17.1364 6.97761 16.8555Z" fill="white"/>
<path d="M26.4467 16.3885C27.0841 15.7854 27.8375 15.6609 28.7723 15.6609H29.4382C29.9962 15.6609 30.4488 15.2692 30.4488 14.7855C30.4488 14.3019 29.9962 13.9102 29.4382 13.9102H28.7723C27.6322 13.9102 26.1682 14.0579 24.9541 15.2065C24.9541 15.2065 24.3863 15.7442 23.6748 16.4186L25.0442 17.7157L26.4467 16.3877V16.3885Z" fill="white"/>
<path d="M22.2315 15.0572C21.654 14.51 20.9335 14.0916 20.1363 13.9379C19.5926 13.8331 19.0409 14.0813 18.8918 14.5469C18.7419 15.0125 19.057 15.4953 19.5953 15.625C20.0497 15.7341 20.4139 15.9291 20.7398 16.2384L22.3056 17.7177C22.752 17.295 23.2403 16.832 23.6751 16.4205L22.2315 15.0572Z" fill="white"/>
<path d="M29.4508 19.789H28.7849C27.8493 19.789 27.0958 19.6653 26.4593 19.0614L25.0452 17.7188L23.6758 19.0159L24.9676 20.2434C26.1808 21.3929 27.6457 21.5397 28.7858 21.5397H29.4517C30.0097 21.5397 30.4623 21.148 30.4623 20.6644C30.4623 20.1808 30.0097 19.789 29.4517 19.789H29.4508Z" fill="white"/>
<path d="M23.6751 16.4219C23.2403 16.8342 22.7511 17.2964 22.3057 17.719L23.6751 19.0162L25.0445 17.719L23.6751 16.4219Z" fill="white"/>
</g>
</svg>
