<svg width="28" height="29" viewBox="0 0 28 29" fill="none" xmlns="http://www.w3.org/2000/svg">
<path d="M14 28C21.732 28 28 21.732 28 14C28 6.26801 21.732 0 14 0C6.26801 0 0 6.26801 0 14C0 21.732 6.26801 28 14 28Z" fill="#B8C2CA"/>
<mask id="mask0_800_5122" style="mask-type:alpha" maskUnits="userSpaceOnUse" x="-1" y="-1" width="30" height="30">
<path d="M14 28C21.732 28 28 21.732 28 14C28 6.26801 21.732 0 14 0C6.26801 0 0 6.26801 0 14C0 21.732 6.26801 28 14 28Z" fill="#EEF2F5" stroke="black" stroke-width="0.459016" stroke-linecap="round" stroke-linejoin="round"/>
</mask>
<g mask="url(#mask0_800_5122)">
<path d="M13.9998 17.2331C16.9737 17.2331 19.3845 14.8223 19.3845 11.8485C19.3845 8.87464 16.9737 6.46387 13.9998 6.46387C11.026 6.46387 8.61523 8.87464 8.61523 11.8485C8.61523 14.8223 11.026 17.2331 13.9998 17.2331Z" fill="white"/>
<path d="M14.0005 31.1249C20.5429 31.1249 25.8466 32.2901 25.8466 26.9565C25.8466 21.6229 20.5429 18.3096 14.0005 18.3096C7.458 18.3096 2.1543 21.6229 2.1543 26.9565C2.1543 32.2901 7.458 31.1249 14.0005 31.1249Z" fill="white"/>
</g>
</svg>
