<svg width="36" height="36" viewBox="0 0 36 36" fill="none" xmlns="http://www.w3.org/2000/svg">
<path d="M0 18C0 8.05887 8.05888 0 18 0C27.9411 0 36 8.05887 36 18C36 27.9411 27.9411 36 18 36C8.05888 36 0 27.9411 0 18Z" fill="#007DC3"/>
<mask id="mask0_800_4341" style="mask-type:luminance" maskUnits="userSpaceOnUse" x="3" y="13" width="28" height="9">
<path d="M30.4616 13.9111H3.69238V21.5532H30.4616V13.9111Z" fill="white"/>
</mask>
<g mask="url(#mask0_800_4341)">
<path d="M20.8711 19.0749C20.2337 19.6788 19.4802 19.8017 18.5455 19.8017H10.5298C9.89148 19.8017 9.32549 19.306 9.06124 18.6067H6.97852C7.35792 20.293 8.80592 21.5524 10.5298 21.5524H18.5455C19.6856 21.5524 21.1496 21.4047 22.3637 20.2561L23.676 19.014L22.3066 17.7168C21.5237 18.4582 20.872 19.0749 20.872 19.0749H20.8711Z" fill="white"/>
<path d="M10.5297 15.6619H15.7548C15.9851 15.6619 16.2422 15.9067 16.2422 16.2589C16.2422 16.6111 15.9851 16.8568 15.7548 16.8568H9.06026C8.9585 17.1248 8.90136 17.4221 8.90136 17.7322C8.90136 18.0423 8.9585 18.3404 9.06026 18.6076H15.7539C17.1376 18.6076 18.2634 17.5535 18.2634 16.2589C18.2634 14.9643 17.1376 13.9111 15.7539 13.9111H10.5288C8.80405 13.9111 7.35605 15.1705 6.97754 16.8568H9.06026C9.32541 16.1575 9.89139 15.6619 10.5288 15.6619H10.5297Z" fill="white"/>
<path d="M8.90092 17.7318C8.90092 17.4208 8.95806 17.1236 9.05983 16.8564H6.97711C6.91372 17.1382 6.87891 17.4303 6.87891 17.7318C6.87891 18.0333 6.91372 18.3263 6.97711 18.6072H9.05983C8.95895 18.3392 8.90092 18.0428 8.90092 17.7318Z" fill="white"/>
<path d="M6.97761 16.8564H4.70295C4.14499 16.8564 3.69238 17.2482 3.69238 17.7318C3.69238 18.2154 4.14499 18.6072 4.70295 18.6072H6.97761C6.91422 18.3254 6.87941 18.0333 6.87941 17.7318C6.87941 17.4303 6.91422 17.1374 6.97761 16.8564Z" fill="white"/>
<path d="M26.4467 16.3895C27.0841 15.7864 27.8375 15.6619 28.7723 15.6619H29.4382C29.9962 15.6619 30.4488 15.2701 30.4488 14.7865C30.4488 14.3029 29.9962 13.9111 29.4382 13.9111H28.7723C27.6322 13.9111 26.1682 14.0589 24.9541 15.2074C24.9541 15.2074 24.3863 15.7452 23.6748 16.4196L25.0442 17.7167L26.4467 16.3886V16.3895Z" fill="white"/>
<path d="M22.2315 15.0572C21.654 14.51 20.9335 14.0916 20.1363 13.9379C19.5926 13.8331 19.0409 14.0813 18.8918 14.5469C18.7419 15.0125 19.057 15.4953 19.5953 15.625C20.0497 15.7341 20.4139 15.9291 20.7398 16.2384L22.3056 17.7177C22.752 17.295 23.2403 16.832 23.6751 16.4205L22.2315 15.0572Z" fill="white"/>
<path d="M29.4508 19.7871H28.7849C27.8493 19.7871 27.0958 19.6634 26.4593 19.0595L25.0452 17.7168L23.6758 19.014L24.9676 20.2415C26.1808 21.3909 27.6457 21.5378 28.7858 21.5378H29.4517C30.0097 21.5378 30.4623 21.1461 30.4623 20.6625C30.4623 20.1788 30.0097 19.7871 29.4517 19.7871H29.4508Z" fill="white"/>
<path d="M23.6751 16.4199C23.2403 16.8323 22.7511 17.2945 22.3057 17.7171L23.6751 19.0142L25.0445 17.7171L23.6751 16.4199Z" fill="white"/>
</g>
</svg>
