<svg width="22" height="22" viewBox="0 0 22 22" fill="none" xmlns="http://www.w3.org/2000/svg">
<path d="M13.507 2.25624V6.18317C13.507 6.71561 13.507 6.98183 13.6107 7.1852C13.7018 7.36409 13.8472 7.50952 14.0261 7.60067C14.2295 7.70429 14.4957 7.70429 15.0282 7.70429H18.9551M15.4085 11.4437H7.80282M15.4085 15.2465H7.80282M9.70423 7.64084H7.80282M13.507 2H8.56338C6.96605 2 6.16738 2 5.55728 2.31086C5.02062 2.5843 4.5843 3.02062 4.31086 3.55728C4 4.16738 4 4.96605 4 6.56338V15.4366C4 17.034 4 17.8326 4.31086 18.4427C4.5843 18.9794 5.02062 19.4157 5.55728 19.6891C6.16738 20 6.96605 20 8.56338 20H14.6479C16.2452 20 17.0439 20 17.654 19.6891C18.1906 19.4157 18.627 18.9794 18.9004 18.4427C19.2113 17.8326 19.2113 17.034 19.2113 15.4366V7.70423L13.507 2Z" stroke="black" stroke-width="1.6" stroke-linecap="round" stroke-linejoin="round"/>
</svg>
