<svg width="22" height="22" viewBox="0 0 22 22" fill="none" xmlns="http://www.w3.org/2000/svg">
    <path
        d="M7.42478 8.84327H11.2941M7.42478 12.2289H14.1961M11.7777 19.0002C16.3188 19.0002 20 15.319 20 10.7779C20 6.2369 16.3188 2.55566 11.7777 2.55566C7.23671 2.55566 3.55548 6.2369 3.55548 10.7779C3.55548 11.6969 3.70624 12.5806 3.98436 13.4058C4.08903 13.7163 4.14136 13.8715 4.1508 13.9908C4.16012 14.1086 4.15307 14.1912 4.12393 14.3057C4.09442 14.4217 4.02927 14.5423 3.89897 14.7834L2.31676 17.712C2.09107 18.1298 1.97823 18.3387 2.00348 18.4999C2.02548 18.6403 2.10812 18.7639 2.22945 18.8379C2.36874 18.9229 2.60489 18.8985 3.07718 18.8496L8.03087 18.3376C8.18088 18.3221 8.25589 18.3143 8.32426 18.3169C8.3915 18.3195 8.43897 18.3258 8.50454 18.3409C8.57121 18.3563 8.65504 18.3886 8.82271 18.4532C9.73979 18.8065 10.7361 19.0002 11.7777 19.0002Z"
        stroke="currentColor"
        strokeWidth="1.6"
        strokeLinecap="round"
        strokeLinejoin="round"
    />
</svg>