<svg width="22" height="22" viewBox="0 0 22 22" fill="none" xmlns="http://www.w3.org/2000/svg">
    <path
        d="M16 13.941V10.9354C16 10.7559 16 10.6662 15.9727 10.587C15.9485 10.5169 15.9091 10.4531 15.8572 10.4001C15.7986 10.3403 15.7183 10.3001 15.5578 10.2199L11 7.94098M3 8.94098V15.7476C3 16.1195 3 16.3055 3.05802 16.4683C3.10931 16.6122 3.1929 16.7425 3.30238 16.8491C3.42622 16.9697 3.59527 17.0471 3.93335 17.2021L10.3334 20.1354C10.5786 20.2478 10.7012 20.304 10.8289 20.3262C10.9421 20.3459 11.0579 20.3459 11.1711 20.3262C11.2988 20.304 11.4214 20.2478 11.6666 20.1354L18.0666 17.2021C18.4047 17.0471 18.5738 16.9697 18.6976 16.8491C18.8071 16.7425 18.8907 16.6122 18.942 16.4683C19 16.3055 19 16.1195 19 15.7476V8.94098M1 7.94098L10.6422 3.11987C10.7734 3.05428 10.839 3.02148 10.9078 3.00857C10.9687 2.99714 11.0313 2.99714 11.0922 3.00857C11.161 3.02148 11.2266 3.05428 11.3578 3.11987L21 7.94098L11.3578 12.7621C11.2266 12.8277 11.161 12.8605 11.0922 12.8734C11.0313 12.8848 10.9687 12.8848 10.9078 12.8734C10.839 12.8605 10.7734 12.8277 10.6422 12.7621L1 7.94098Z"
        stroke="currentColor"
        strokeWidth="1.6"
        strokeLinecap="round"
        strokeLinejoin="round"
    />
</svg>