<svg width="23" height="22" viewBox="0 0 23 22" fill="none" xmlns="http://www.w3.org/2000/svg">
<path d="M16.9562 17.2942V15.4396M16.9562 15.4396V13.585M16.9562 15.4396H15.1016M16.9562 15.4396H18.8108" stroke="#BABABA" stroke-width="1.25847" stroke-linecap="round" stroke-linejoin="round"/>
<path d="M7.72765 8.90452V7.04992M7.72765 7.04992V5.19531M7.72765 7.04992H5.87305M7.72765 7.04992H9.58225" stroke="#BABABA" stroke-width="1.25847" stroke-linecap="round" stroke-linejoin="round"/>
<path d="M16.4875 2.30301C16.6431 1.8984 16.7209 1.6961 16.8332 1.63741C16.9306 1.58654 17.0467 1.58654 17.144 1.63741C17.2564 1.6961 17.3342 1.8984 17.4898 2.30301L18.0434 3.74242C18.1913 4.12682 18.2652 4.31902 18.3801 4.48068C18.482 4.62397 18.6072 4.74916 18.7505 4.85104C18.9122 4.966 19.1044 5.03992 19.4888 5.18776L20.9282 5.74138C21.3328 5.897 21.5351 5.97481 21.5938 6.08714C21.6446 6.1845 21.6446 6.30058 21.5938 6.39794C21.5351 6.51027 21.3328 6.58808 20.9282 6.7437L19.4888 7.29732C19.1044 7.44516 18.9122 7.51908 18.7505 7.63404C18.6072 7.73592 18.482 7.86111 18.3801 8.0044C18.2652 8.16606 18.1913 8.35826 18.0434 8.74266L17.4898 10.1821C17.3342 10.5867 17.2564 10.789 17.144 10.8477C17.0467 10.8985 16.9306 10.8985 16.8332 10.8477C16.7209 10.789 16.6431 10.5867 16.4875 10.1821L15.9339 8.74266C15.786 8.35826 15.7121 8.16606 15.5971 8.0044C15.4953 7.86111 15.3701 7.73592 15.2268 7.63404C15.0651 7.51908 14.8729 7.44516 14.4885 7.29732L13.0491 6.7437C12.6445 6.58808 12.4422 6.51027 12.3835 6.39794C12.3326 6.30058 12.3326 6.1845 12.3835 6.08714C12.4422 5.97481 12.6445 5.897 13.0491 5.74138L14.4885 5.18776C14.8729 5.03992 15.0651 4.966 15.2268 4.85104C15.3701 4.74916 15.4952 4.62397 15.5971 4.48068C15.7121 4.31902 15.786 4.12682 15.9339 3.74242L16.4875 2.30301Z" stroke="#BABABA" stroke-width="1.25847" stroke-linecap="round" stroke-linejoin="round"/>
<rect x="11.9604" y="9.43663" width="3.08043" height="14.3616" rx="1.10632" transform="rotate(50.4532 11.9604 9.43663)" stroke="#BABABA" stroke-width="1.25847"/>
</svg>
