<svg width="23" height="22" viewBox="0 0 23 22" fill="none" xmlns="http://www.w3.org/2000/svg">
<g clip-path="url(#clip0_2175_24)">
<path d="M2.35617 6.12687C2.53069 5.98452 2.73509 5.89577 2.94946 5.86171L2.94921 5.85947L18.8828 2.81173L18.9054 2.80739C19.1997 2.76664 19.4956 2.81908 19.7598 2.95089C20.0242 3.08292 20.249 3.29115 20.4105 3.55074C20.5721 3.81054 20.6662 4.1146 20.6795 4.42937C20.6928 4.74424 20.6251 5.05965 20.4797 5.33813L20.4731 5.3514L20.4654 5.36301L11.7848 20.068L11.7834 20.0677C11.6736 20.268 11.5206 20.438 11.3339 20.5584C11.1396 20.6836 10.9197 20.7507 10.6962 20.7559C10.4729 20.7609 10.2539 20.7041 10.0596 20.5937C9.8654 20.4833 9.70026 20.3222 9.57875 20.1268L9.56534 20.1053C9.48225 19.9715 9.41403 19.8272 9.36248 19.6759L7.54247 14.3421L7.54195 14.3412C7.4864 14.1775 7.47649 13.9961 7.51753 13.8207L7.55765 13.6916C7.60686 13.5662 7.68292 13.4524 7.78214 13.3609L11.3788 10.0463L7.18456 12.3985C7.03012 12.4852 6.8566 12.5157 6.69012 12.4906C6.52412 12.4656 6.37226 12.3866 6.25287 12.269L6.25235 12.2682L2.36922 8.43437C2.259 8.32567 2.16117 8.20302 2.0779 8.06934L2.06449 8.04778L1.9816 7.89609C1.90795 7.73915 1.86199 7.56734 1.84587 7.39025C1.82441 7.15403 1.85717 6.91329 1.94571 6.69145C2.03438 6.46928 2.17539 6.27433 2.35617 6.12687Z" fill="white" stroke="#C4C4C4"/>
</g>
<defs>
<clipPath id="clip0_2175_24">
<rect width="23" height="22" fill="white"/>
</clipPath>
</defs>
</svg>
