<svg width="24" height="27" viewBox="0 0 24 27" fill="none" xmlns="http://www.w3.org/2000/svg">
<rect width="24" height="27" rx="5.77091" fill="#EDEDED"/>
<path d="M6.62402 2.56641H12.5908C13.8821 2.56641 15.1313 3.02603 16.1143 3.86328L19.5234 6.76758C20.7354 7.79996 21.4336 9.31226 21.4336 10.9043V20.376C21.4335 22.617 19.617 24.4335 17.376 24.4336H6.62402C4.38303 24.4335 2.56646 22.617 2.56641 20.376V6.62402C2.56646 4.38303 4.38303 2.56646 6.62402 2.56641Z" fill="white" stroke="#2997D2" stroke-width="1.13261"/>
<path d="M8 8.5H16V9.78226H8V8.5ZM11 7H12.8546V9.60658H11V7Z" fill="#2997D2"/>
<path d="M7 19.501H17V21.001H7V19.501ZM7 17.2119H8.5V20.7875H7L7 17.2119Z" fill="#2997D2"/>
<circle cx="11.992" cy="12.992" r="2.99202" fill="#2997D2"/>
<circle cx="11.9904" cy="12.9904" r="1.2638" fill="white"/>
<path d="M13 18C13 18.5523 12.5523 19 12 19C11.4477 19 11 18.5523 11 18C11 17.4477 11.4477 17 12 17C12.5523 17 13 17.4477 13 18Z" fill="#2997D2"/>
</svg>
