<svg width="45" height="31" viewBox="0 0 45 31" fill="none" xmlns="http://www.w3.org/2000/svg">
<path d="M33.3333 9.21632C31.9651 4.85959 27.6225 1.67578 22.477 1.67578C17.3315 1.67578 13.0841 4.86015 11.6666 9.14338L33.3333 9.21632Z" fill="#1CA36E"/>
<path d="M22.5001 9.21632V1.67578C22.5001 1.67578 27.9532 3.96617 30.0001 9.21632" fill="#6DE5B6"/>
<path d="M22.5001 9.21632L22.3595 1.67578C22.3595 1.67578 16.3868 4.00133 14.1667 9.20628" fill="#6DE5B6"/>
<path d="M14.6392 9.21632C14.6392 9.21632 15.827 6.7622 17.6338 4.99773C19.4406 3.23325 22.5001 1.7068 22.5001 1.7068C22.5001 1.7068 15.3981 0.76876 10.8334 9.21611" fill="#B0F4DA"/>
<path d="M34.1667 11.5H10.0001L10.5037 12.5683H33.6633L34.1667 11.5Z" fill="#C7C7C7"/>
<path d="M33.6633 9.21484H10.5813L10.0001 11.5H34.1667L33.6633 9.21484Z" fill="#F7F7F7"/>
<path d="M8.60945 28.9601H5.83333L6.38889 15.9615C6.38889 15.4758 6.8864 15.082 7.5 15.082C8.1136 15.082 8.61111 15.4758 8.61111 15.9615L9.16667 29.3253L8.60945 28.9601Z" fill="#0B4C90"/>
<path d="M26.1096 28.9601H23.3334L23.889 15.9615C23.889 15.4758 24.3865 15.082 25.0001 15.082C25.6137 15.082 26.1112 15.4758 26.1112 15.9615L26.6668 29.3253L26.1096 28.9601Z" fill="#0B4C90"/>
<path d="M14.4427 28.9601H11.6666L12.2222 15.9615C12.2222 15.4758 12.7197 15.082 13.3333 15.082C13.9469 15.082 14.4444 15.4758 14.4444 15.9615L15 29.3253L14.4427 28.9601Z" fill="#0B4C90"/>
<path d="M31.9428 28.9601H29.1667L29.7223 15.9615C29.7223 15.4758 30.2198 15.082 30.8334 15.082C31.447 15.082 31.9445 15.4758 31.9445 15.9615L32.5001 29.3253L31.9428 28.9601Z" fill="#0B4C90"/>
<path d="M20.2761 28.9601H17.5L18.0556 15.9615C18.0556 15.4758 18.5531 15.082 19.1667 15.082C19.7803 15.082 20.2778 15.4758 20.2778 15.9615L20.8334 29.3253L20.2761 28.9601Z" fill="#0B4C90"/>
<path d="M37.7761 28.9601H35L35.5556 15.9615C35.5556 15.4758 36.0531 15.082 36.6667 15.082C37.2803 15.082 37.7778 15.4758 37.7778 15.9615L38.3333 29.3253L37.7761 28.9601Z" fill="#0B4C90"/>
<path d="M42.4144 28.4863H2.60376L1.66671 30.162H43.3334L42.4144 28.4863Z" fill="#05247C"/>
<path d="M42.4144 28.4863H2.60376L1.66671 30.162H43.3334L42.4144 28.4863Z" fill="#05247C"/>
<path d="M42.4144 28.4863H2.60376L1.66671 30.162H43.3334L42.4144 28.4863Z" fill="#024080"/>
<path d="M41.3061 27.6484H3.67372L3.33338 28.4863H41.6666L41.3061 27.6484Z" fill="#F1EDED"/>
<path d="M41.3061 27.6484H3.67372L3.33338 28.4863H41.6666L41.3061 27.6484Z" fill="#F1EDED"/>
<path d="M41.3061 27.6484H3.67372L3.33338 28.4863H41.6666L41.3061 27.6484Z" fill="#8DC4FF"/>
<path d="M41.6667 12.5684H2.00007V13.4062H41.6667V12.5684Z" fill="white"/>
<path d="M40.8333 13.4043H2.99997V14.2421H40.8333V13.4043Z" fill="#CCCCCC"/>
<path d="M40.8333 14.2422H2.99997V15.9179H40.8333V14.2422Z" fill="#0B4C90"/>
</svg>
